HIERARCHY
ROOT root
{
	OFFSET	0	13.1	24.9
	CHANNELS 6  Xposition Yposition Zposition Xrotation Yrotation Zrotation
	JOINT spine_1
	{
		OFFSET	0	9.99999	0
		CHANNELS 3  Xrotation Yrotation Zrotation
		JOINT spine_2
		{
			OFFSET	0	112	-10
			CHANNELS 3  Xrotation Yrotation Zrotation
			JOINT spine_3
			{
				OFFSET	0	206.5	19.3
				CHANNELS 3  Xrotation Yrotation Zrotation
				JOINT spine_4
				{
					OFFSET	0	110.4	14.6
					CHANNELS 3  Xrotation Yrotation Zrotation
					JOINT neck_1
					{
						OFFSET	0	71.8	-50.3
						CHANNELS 3  Xrotation Yrotation Zrotation
						JOINT neck_2
						{
							OFFSET	0	86.2	-25.8
							CHANNELS 3  Xrotation Yrotation Zrotation
							JOINT head_ee
							{
								OFFSET	0	179.8	-8.7
								CHANNELS 3  Xrotation Yrotation Zrotation
								End Site
								{
									OFFSET	1	0	0
								}
							}
						}
					}
					JOINT left_clavicle
					{
						OFFSET	-43.2	22.4	-70.8
						CHANNELS 3  Xrotation Yrotation Zrotation
						JOINT left_shoulder
						{
							OFFSET	-93.9	-5.79999	48.7
							CHANNELS 3  Xrotation Yrotation Zrotation
							JOINT left_elbow
							{
								OFFSET	-291.4	-30.8	15.2
								CHANNELS 3  Xrotation Yrotation Zrotation
								JOINT left_lowarm_twist
								{
									OFFSET	-110.7	-3.89999	13.6
									CHANNELS 3  Xrotation Yrotation Zrotation
									JOINT left_hand
									{
										OFFSET	-110.7	-3.89999	13.6
										CHANNELS 3  Xrotation Yrotation Zrotation
										JOINT left_ee
										{
											OFFSET	-80.8	-5.10001	12.1
											CHANNELS 3  Xrotation Yrotation Zrotation
											End Site
											{
												OFFSET	1	0	0
											}
										}
									}
								}
							}
						}
					}
					JOINT right_clavicle
					{
						OFFSET	43.2	22.4	-70.8
						CHANNELS 3  Xrotation Yrotation Zrotation
						JOINT right_shoulder
						{
							OFFSET	93.9	-5.79999	48.7
							CHANNELS 3  Xrotation Yrotation Zrotation
							JOINT right_elbow
							{
								OFFSET	291.4	-30.8	15.2
								CHANNELS 3  Xrotation Yrotation Zrotation
								JOINT right_lowarm_twist
								{
									OFFSET	110.7	-3.89999	13.6
									CHANNELS 3  Xrotation Yrotation Zrotation
									JOINT right_hand
									{
										OFFSET	110.7	-3.89999	13.6
										CHANNELS 3  Xrotation Yrotation Zrotation
										JOINT right_ee
										{
											OFFSET	80.8	-5.10001	12.1
											CHANNELS 3  Xrotation Yrotation Zrotation
											End Site
											{
												OFFSET	1	0	0
											}
										}
									}
								}
							}
						}
					}
				}
			}
		}
	}
	JOINT left_hip
	{
		OFFSET	-82.8	-127.5	0.300001
		CHANNELS 3  Xrotation Yrotation Zrotation
		JOINT left_knee
		{
			OFFSET	-28.2	-396.7	2.2
			CHANNELS 3  Xrotation Yrotation Zrotation
			JOINT left_ankle
			{
				OFFSET	-11.7	-411.3	35.4
				CHANNELS 3  Xrotation Yrotation Zrotation
				JOINT left_toes
				{
					OFFSET	0	-60	-88.6
					CHANNELS 3  Xrotation Yrotation Zrotation
					JOINT left_foot_ee
					{
						OFFSET	-22.5	-16.5	-42.2
						CHANNELS 3  Xrotation Yrotation Zrotation
						End Site
						{
							OFFSET	1	0	0
						}
					}
				}
			}
		}
	}
	JOINT right_hip
	{
		OFFSET	82.8	-127.5	0.300001
		CHANNELS 3  Xrotation Yrotation Zrotation
		JOINT right_knee
		{
			OFFSET	28.2	-396.7	2.2
			CHANNELS 3  Xrotation Yrotation Zrotation
			JOINT right_ankle
			{
				OFFSET	11.7	-411.3	35.4
				CHANNELS 3  Xrotation Yrotation Zrotation
				JOINT right_toes
				{
					OFFSET	0	-60	-88.6
					CHANNELS 3  Xrotation Yrotation Zrotation
					JOINT right_foot_ee
					{
						OFFSET	22.5	-16.5	-42.2
						CHANNELS 3  Xrotation Yrotation Zrotation
						End Site
						{
							OFFSET	1	0	0
						}
					}
				}
			}
		}
	}
}
MOTION
Frames: 8
Frame Time: 0.02
3821.67 668.752 -237.784 -159.458 -45.5275 -165.672 5.43278 0.145921 0.307216 5.43282 0.126077 0.315878 5.43347 0.0883683 0.328429 5.43334 0.139128 0.310351 -12.5552 1.87451 -0.746755 -12.563 4.03452 -0.171608 -0.0 0.0 -0.0 4.86074 12.9621 9.60407 -5.49247 -25.4381 54.1574 1.53443 -37.2364 0.516963 43.2982 -0.531837 -5.37575 7.51305 -26.5913 39.4754 -0.0 0.0 -0.0 9.0462 7.58519 -17.7959 -34.6548 39.5493 -63.8534 0.193608 5.47849 -0.00926327 0.716394 -0.0246901 0.0881632 7.22671 23.516 -39.8011 0.0 0.0 0.0 19.509 21.7098 4.25056 6.38212 -0.314909 -0.927914 38.8005 14.4825 -4.81618 33.3736 -0.0 -0.0 -0.0 0.0 -0.0 35.2319 -9.71601 4.38926 -15.2758 -0.321984 -2.3152 8.55561 29.3352 1.53602 13.7755 -0.0 -0.0 0.0 0.0 0.0 
3829.05 667.173 -232.786 -158.679 -46.2934 -165.206 5.49186 0.178142 0.351552 5.49191 0.155411 0.362175 5.49283 0.112494 0.377715 5.49267 0.170735 0.355208 -11.2744 3.8085 -1.83938 -11.2954 8.40815 -0.749693 -0.0 0.0 -0.0 5.01223 12.9627 9.85899 -6.77738 -28.0167 53.811 1.45109 -35.7074 0.467417 36.4052 -0.175609 -4.56992 7.96751 -26.4055 43.3263 -0.0 0.0 -0.0 8.77688 10.3959 -17.1692 -34.6805 39.666 -66.0139 0.294876 8.31077 -0.0214236 0.705913 -0.0243369 0.0868712 7.01703 20.8324 -40.2427 0.0 0.0 0.0 19.3853 20.7435 4.87008 7.11586 -0.357704 -1.03224 37.5103 17.4941 -4.74233 34.5386 -0.0 -0.0 -0.0 0.0 -0.0 34.6857 -9.02888 4.45642 -11.6387 -0.301567 -1.75763 3.8109 28.9343 0.693008 14.5206 -0.0 -0.0 0.0 0.0 0.0 
3831.36 667.029 -230.338 -159.237 -46.3272 -165.688 5.49538 0.158903 0.339893 5.49544 0.136953 0.349315 5.49621 0.0956669 0.362802 5.49606 0.151764 0.34314 -13.1349 3.90178 -1.8687 -13.173 8.59198 -0.610871 -0.0 0.0 -0.0 5.47265 12.0193 10.6505 -7.10699 -25.7083 54.0873 1.52237 -37.0188 0.509682 43.0493 -0.517296 -5.34742 7.65195 -26.4834 40.6777 -0.0 0.0 -0.0 8.86004 10.1103 -17.3557 -34.3448 39.3734 -66.3378 0.229167 6.47681 -0.0129665 1.17178 -0.0398104 0.14436 6.70338 20.4755 -37.9406 0.0 0.0 0.0 19.7041 21.0918 4.98129 6.03767 -0.295281 -0.878753 41.3986 18.2951 -5.11701 34.8576 -0.0 -0.0 -0.0 0.0 -0.0 34.1849 -9.16578 3.9676 -10.7203 -0.290818 -1.61712 4.24291 29.0167 0.77124 13.7043 -0.0 -0.0 0.0 0.0 0.0 
3836.38 666.998 -225.748 -158.885 -46.4756 -165.039 5.64024 0.179876 0.238999 5.64026 0.164304 0.24996 5.64095 0.134991 0.266933 5.6409 0.175454 0.242264 -13.6392 4.6714 -2.40164 -13.6996 10.3817 -0.839306 -0.0 0.0 -0.0 4.92088 12.3834 9.70694 -7.33623 -27.0275 55.4098 1.52922 -37.1425 0.513812 38.0951 -0.253907 -4.7713 7.11661 -26.8385 36.1915 -0.0 0.0 -0.0 8.76547 9.98618 -17.1549 -35.3226 40.7424 -65.314 0.226493 6.40185 -0.0126667 1.12841 -0.0383899 0.139004 7.44499 21.2028 -43.5752 0.0 0.0 0.0 19.4574 21.8929 4.57728 6.16664 -0.302596 -0.897173 41.5927 17.1528 -5.11085 32.792 -0.0 -0.0 -0.0 0.0 -0.0 35.296 -12.3477 4.01257 -12.7458 -0.311528 -1.92719 5.30239 30.1457 0.974881 11.9302 -0.0 -0.0 0.0 0.0 0.0 
3843.4 665.554 -215.173 -158.637 -47.5299 -164.484 5.78219 0.113324 0.0269702 5.78219 0.111379 0.0341267 5.78226 0.10692 0.0462367 5.78227 0.112881 0.0287703 -14.6474 5.43853 -1.80469 -14.7478 11.4728 0.0728455 -0.0 0.0 -0.0 4.39059 12.9909 8.81507 -8.95285 -27.2242 56.3275 1.62018 -38.7472 0.569749 38.1762 -0.257817 -4.78091 6.3886 -27.3553 30.4108 -0.0 0.0 -0.0 8.55701 8.44735 -16.7402 -34.1797 38.8124 -65.7975 0.18445 5.22081 -0.00840936 3.08466 -0.0984244 0.381655 7.82958 24.6038 -43.8573 0.0 0.0 0.0 19.1936 22.3925 4.13075 5.7259 -0.277773 -0.834158 40.6223 16.3722 -5.01074 31.4529 -0.0 -0.0 -0.0 0.0 -0.0 35.0528 -10.0467 3.1213 -13.7639 -0.317796 -2.08328 5.48649 28.703 0.988709 11.6337 -0.0 -0.0 0.0 0.0 0.0 
3847.46 665.472 -206.855 -158.62 -46.6145 -164.798 5.88016 0.272216 0.0782847 5.88012 0.266683 0.0954479 5.8806 0.254703 0.123922 5.88068 0.271078 0.0821407 -15.539 4.92846 -2.11664 -15.6329 10.6733 -0.307642 -0.0 0.0 -0.0 3.31085 14.331 7.05789 -8.34073 -25.6437 58.8035 1.82377 -42.092 0.70181 41.8566 -0.449339 -5.21081 5.87711 -27.919 26.3943 -0.0 0.0 -0.0 8.1368 8.45741 -15.8458 -33.5342 39.6246 -66.0985 0.252675 7.13466 -0.0157524 1.32007 -0.0446375 0.162686 7.66563 24.5979 -42.4824 0.0 0.0 0.0 18.9947 25.8889 3.98012 5.62115 -0.271944 -0.819152 40.6486 16.1725 -5.0096 30.9384 -0.0 -0.0 -0.0 0.0 -0.0 33.4078 -10.6121 2.20677 -11.4035 -0.299028 -1.72163 7.02553 27.2357 1.23543 10.2731 -0.0 -0.0 0.0 0.0 0.0 
3856.44 659.184 -193.891 -157.767 -47.2965 -163.629 6.27945 0.124264 0.0294409 6.27944 0.122139 0.0372885 6.27953 0.117699 0.0495496 6.27955 0.124048 0.0303393 -15.7188 5.40463 -3.34138 -15.8327 12.2937 -1.27655 -0.0 0.0 -0.0 2.50469 14.8729 5.77372 -10.902 -25.8162 59.7091 2.10037 -46.1304 0.894459 40.3758 -0.368954 -5.03931 5.40193 -27.3489 23.5111 -0.0 0.0 -0.0 7.39532 6.54627 -14.3276 -31.0577 41.5752 -66.7671 0.255477 7.21294 -0.0161022 1.60594 -0.0538087 0.198047 7.56207 25.1838 -41.1071 0.0 0.0 0.0 18.4327 25.8468 3.27482 5.95391 -0.290554 -0.866781 40.9704 15.7268 -5.03048 29.3516 -0.0 -0.0 -0.0 0.0 -0.0 32.5104 -12.0021 1.888 -10.6538 -0.289951 -1.60694 8.91607 28.6652 1.58434 11.7207 -0.0 -0.0 0.0 0.0 0.0 
3864.47 657.992 -176.174 -158.867 -46.2064 -164.836 6.43303 0.0448097 -0.104552 6.43304 0.0513718 -0.101489 6.43294 0.0611973 -0.095885 6.43293 0.045286 -0.104347 -15.6109 7.49939 0.000771366 -15.8066 14.3621 2.59492 -0.0 0.0 -0.0 0.45927 15.0912 2.50964 -13.4636 -24.6978 62.7004 2.2762 -48.4244 1.02365 45.5833 -0.671067 -5.63286 4.36716 -28.5586 15.8505 -0.0 0.0 -0.0 7.89042 6.87823 -15.3571 -29.3756 41.3059 -64.7976 0.275657 7.77597 -0.0187344 2.85527 -0.0918142 0.353099 7.38519 24.1441 -40.5648 0.0 0.0 0.0 17.6157 26.6991 1.88634 2.98995 -0.134623 -0.438977 41.4092 13.8872 -5.04048 27.386 -0.0 -0.0 -0.0 0.0 -0.0 30.6575 -12.8432 0.930767 -10.2162 -0.28396 -1.54007 10.2782 29.164 1.82757 12.0624 -0.0 -0.0 0.0 0.0 0.0 
